<svg xmlns="http://www.w3.org/2000/svg" version="1.1" xmlns:xlink="http://www.w3.org/1999/xlink" xmlns:svgjs="http://svgjs.dev/svgjs" width="1000" height="625" viewBox="0 0 1000 625"><g transform="matrix(1,0,0,1,0,0)"><svg viewBox="0 0 576 360" data-background-color="#ffffff" preserveAspectRatio="xMidYMid meet" height="625" width="1000" xmlns="http://www.w3.org/2000/svg" xmlns:xlink="http://www.w3.org/1999/xlink"><g id="tight-bounds" transform="matrix(1,0,0,1,0,0)"><svg viewBox="0 0 576 360" height="360" width="576"><g><svg></svg></g><g><svg viewBox="0 0 576 360" height="360" width="576"><g><path xmlns="http://www.w3.org/2000/svg" d="M132.115 90l155.885-90 155.885 90v180l-155.885 90-155.885-90z" fill="#39cccc" fill-rule="nonzero" stroke="none" stroke-width="1" stroke-linecap="butt" stroke-linejoin="miter" stroke-miterlimit="10" stroke-dasharray="" stroke-dashoffset="0" font-family="none" font-weight="none" font-size="none" text-anchor="none" style="mix-blend-mode: normal" data-fill-palette-color="tertiary"></path></g><g transform="matrix(1,0,0,1,223.25392031770826,99)"><svg viewBox="0 0 129.49215936458347 162" height="162" width="129.49215936458347"><g><svg viewBox="0 0 129.49215936458347 162" height="162" width="129.49215936458347"><g><svg viewBox="0 0 230.4 288.2398454327456" height="162" width="129.49215936458347"><g transform="matrix(1,0,0,1,0,157.85395122619647)"><svg viewBox="0 0 230.4 130.38589420654915" height="130.38589420654915" width="230.4"><g id="textblocktransform"><svg viewBox="0 0 230.4 130.38589420654915" height="130.38589420654915" width="230.4" id="textblock"><g><svg viewBox="0 0 230.4 130.38589420654915" height="130.38589420654915" width="230.4"><g transform="matrix(1,0,0,1,0,0)"><svg width="230.4" viewBox="3.25 -33.70000076293945 59.54999923706055 33.70000076293945" height="130.38589420654915" data-palette-color="#ffffff"><path d="M31.05-33.7L31.05 0 23.3 0 23.3-13.45 10.95-13.45 10.95 0 3.25 0 3.25-33.7 10.95-33.7 10.95-20 23.3-20 23.3-33.7 31.05-33.7ZM52.1 0L52.1 0 37.55 0 37.55-33.7 50.65-33.7Q56.2-33.7 59.1-31.08 62-28.45 62-24.4L62-24.4Q62-21.75 60.6-19.75 59.2-17.75 56.95-17.05L56.95-17.05Q62.8-15.3 62.8-9.15L62.8-9.15Q62.8-5.15 59.92-2.58 57.05 0 52.1 0ZM49.35-27.55L49.35-27.55 45.25-27.55 45.25-20 48.1-20Q51.1-20 52.62-21.1 54.15-22.2 54.15-24L54.15-24Q54.15-27.55 49.35-27.55ZM49.35-13.95L49.35-13.95 45.25-13.95 45.25-6.15 49.3-6.15Q55-6.15 55-10.05 55-13.95 49.35-13.95Z" opacity="1" transform="matrix(1,0,0,1,0,0)" fill="#ffffff" class="wordmark-text-0" data-fill-palette-color="quaternary" id="text-0"></path></svg></g></svg></g></svg></g></svg></g><g transform="matrix(1,0,0,1,44.0064,0)"><svg viewBox="0 0 142.3872 138.82752" height="138.82752" width="142.3872"><g><svg xmlns="http://www.w3.org/2000/svg" xmlns:xlink="http://www.w3.org/1999/xlink" version="1.1" x="0" y="0" viewBox="10 11 80 78" style="enable-background:new 0 0 100 100;" xml:space="preserve" height="138.82752" width="142.3872" class="icon-icon-0" data-fill-palette-color="quaternary" id="icon-0"><g fill="#ffffff" data-fill-palette-color="quaternary"><path d="M81 11c-5 0-9 4-9 9s4 9 9 9 9-4 9-9S86 11 81 11zM81 27c-3.9 0-7-3.1-7-7s3.1-7 7-7 7 3.1 7 7S84.9 27 81 27z" fill="#ffffff" data-fill-palette-color="quaternary"></path><path d="M81 41c-2.6 0-4.9 1.1-6.6 2.9L57.3 25.3C58.4 23.8 59 22 59 20c0-5-4-9-9-9s-9 4-9 9 4 9 9 9c2.3 0 4.3-0.9 5.9-2.2l17.3 18.7C72.5 46.8 72 48.4 72 50c0 5 4 9 9 9s9-4 9-9S86 41 81 41zM50 27c-3.9 0-7-3.1-7-7s3.1-7 7-7 7 3.1 7 7S53.9 27 50 27zM81 57c-3.9 0-7-3.1-7-7s3.1-7 7-7 7 3.1 7 7S84.9 57 81 57z" fill="#ffffff" data-fill-palette-color="quaternary"></path><path d="M50 59c5 0 9-4 9-9s-4-9-9-9-9 4-9 9S45 59 50 59zM50 43c3.9 0 7 3.1 7 7s-3.1 7-7 7-7-3.1-7-7S46.1 43 50 43z" fill="#ffffff" data-fill-palette-color="quaternary"></path><path d="M19 89c5 0 9-4 9-9s-4-9-9-9-9 4-9 9S14 89 19 89zM19 73c3.9 0 7 3.1 7 7s-3.1 7-7 7-7-3.1-7-7S15.1 73 19 73z" fill="#ffffff" data-fill-palette-color="quaternary"></path><path d="M81 71c-4.6 0-8.4 3.5-8.9 8H58.9c-0.5-4.5-4.3-8-8.9-8-3.2 0-6 1.7-7.6 4.2l-18-18c2.2-1.6 3.6-4.3 3.6-7.2 0-4.6-3.5-8.4-8-8.9V28.9c4.5-0.5 8-4.3 8-8.9 0-5-4-9-9-9s-9 4-9 9c0 4.6 3.5 8.4 8 8.9v12.1c-4.5 0.5-8 4.3-8 8.9 0 5 4 9 9 9 1.3 0 2.5-0.3 3.6-0.7l18.9 18.9C41.2 78 41 79 41 80c0 5 4 9 9 9 4.6 0 8.4-3.5 8.9-8h13.1c0.5 4.5 4.3 8 8.9 8 5 0 9-4 9-9S86 71 81 71zM12 20c0-3.9 3.1-7 7-7s7 3.1 7 7-3.1 7-7 7S12 23.9 12 20zM12 50c0-3.9 3.1-7 7-7s7 3.1 7 7-3.1 7-7 7S12 53.9 12 50zM50 87c-3.9 0-7-3.1-7-7s3.1-7 7-7 7 3.1 7 7S53.9 87 50 87zM81 87c-3.9 0-7-3.1-7-7s3.1-7 7-7 7 3.1 7 7S84.9 87 81 87z" fill="#ffffff" data-fill-palette-color="quaternary"></path></g></svg></g></svg></g><g></g></svg></g></svg></g></svg></g></svg></g><defs></defs></svg><rect width="576" height="360" fill="none" stroke="none" visibility="hidden"></rect></g></svg></g></svg>